<svg width="158" height="50" viewBox="0 0 158 50" fill="none" xmlns="http://www.w3.org/2000/svg">
<mask id="mask0_16630_4126" style="mask-type:alpha" maskUnits="userSpaceOnUse" x="69" y="0" width="30" height="50">
<path fill-rule="evenodd" clip-rule="evenodd" d="M69.6787 0.106567H98.0823V49.2192H69.6787V0.106567Z" fill="white"/>
</mask>
<g mask="url(#mask0_16630_4126)">
<path fill-rule="evenodd" clip-rule="evenodd" d="M82.429 33.5551C87.4162 28.5783 92.3003 23.7045 97.1937 18.8213C94.1927 18.8213 91.16 18.8075 88.1279 18.8439C87.8444 18.8473 87.5212 19.1223 87.2897 19.347C84.9263 21.6416 82.5788 23.9531 80.2246 26.2574C79.7637 26.7085 79.2928 27.1494 78.636 27.7772V0.106558C76.1925 0.106558 73.8767 0.105812 71.5609 0.108157C71.4237 0.108371 71.2774 0.119671 71.1167 0.131931H69.6787V49.2191H78.6224V49.0217H78.6815V40.1891C79.0201 40.5071 79.2114 40.6739 79.3881 40.8548C81.9119 43.4358 84.4425 46.0101 86.9471 48.6095C87.3564 49.0342 87.7621 49.2251 88.3605 49.219C91.2524 49.1892 94.1446 49.2073 97.0365 49.2052C97.3109 49.205 97.5851 49.1818 98.0823 49.1592C92.8502 43.9435 87.7566 38.8659 82.429 33.5551Z" fill="#416EB2"/>
</g>
<path fill-rule="evenodd" clip-rule="evenodd" d="M20.6242 34.3696C20.623 37.1923 18.3896 39.4241 15.5487 39.4415C12.7183 39.4589 10.3979 37.1575 10.3917 34.3271C10.3855 31.4525 12.6225 29.3254 15.5063 29.2035C18.2875 29.086 20.8464 31.6953 20.6242 34.3696Z" fill="#7DC9AD"/>
<path fill-rule="evenodd" clip-rule="evenodd" d="M157.446 27.797C157.427 24.8529 156.224 22.4055 153.888 20.5794C151.787 18.937 149.339 18.1976 146.716 18.0613C144.879 17.9659 143.18 18.249 141.719 19.1337C141.646 19.178 141.574 19.2236 141.503 19.2707C141.464 19.2965 141.425 19.3232 141.386 19.3498C140.891 19.6955 140.451 20.1043 140.074 20.5117C139.972 20.6269 139.871 20.7448 139.772 20.8694C139.758 20.8869 139.735 20.8981 139.719 20.914C139.023 21.7467 138.624 22.4704 138.624 22.4704V21.4357V18.9437H129.771V49.1958H138.649C138.665 48.9594 138.688 48.7897 138.688 48.6198C138.69 44.8625 138.692 41.1051 138.689 37.3478C138.688 35.1682 138.624 32.9871 138.688 30.8097C138.763 28.2916 140.277 26.5141 142.545 26.1154C145.177 25.6525 147.254 26.5778 148.099 28.7191C148.406 29.4975 148.558 30.3869 148.564 31.2273C148.603 36.8774 148.584 42.5279 148.584 48.1785V49.1618H157.408C157.429 48.9826 157.46 48.8445 157.46 48.7063C157.462 41.7365 157.493 34.7664 157.446 27.797Z" fill="#416EB2"/>
<path fill-rule="evenodd" clip-rule="evenodd" d="M37.7903 40.1766C37.8101 43.1207 39.0131 45.568 41.3489 47.394C43.4499 49.0366 45.8981 49.776 48.5207 49.9123C50.3576 50.0077 52.0566 49.7246 53.518 48.8399C53.5909 48.7956 53.6629 48.75 53.7337 48.7028C53.773 48.677 53.8118 48.6503 53.8506 48.6237C54.3456 48.278 54.7855 47.8692 55.1625 47.4618C55.2647 47.3467 55.3661 47.2287 55.4648 47.1042C55.4786 47.0866 55.5018 47.0755 55.5177 47.0596C56.2137 46.2269 56.6123 45.5032 56.6123 45.5032V46.5379V49.0299H65.4654V18.7778H56.5881C56.5712 19.0142 56.5486 19.1839 56.5485 19.3536C56.5465 23.1111 56.5452 26.8685 56.5477 30.6258C56.5491 32.8052 56.6125 34.9864 56.5482 37.1639C56.4738 39.6819 54.9591 41.4595 52.6916 41.8582C50.0597 42.321 47.9826 41.3957 47.1375 39.2545C46.8303 38.4761 46.6787 37.5866 46.6729 36.7463C46.6335 31.0962 46.6524 25.4455 46.6524 19.7951C46.6524 19.4661 46.6524 19.1371 46.6524 18.8117H37.8288C37.8074 18.9909 37.7766 19.1291 37.7766 19.2673C37.7746 26.2371 37.7436 33.207 37.7903 40.1766Z" fill="#416EB2"/>
<mask id="mask1_16630_4126" style="mask-type:alpha" maskUnits="userSpaceOnUse" x="0" y="0" width="34" height="50">
<path fill-rule="evenodd" clip-rule="evenodd" d="M0 0.131958H33.5517V49.8636H0V0.131958Z" fill="white"/>
</mask>
<g mask="url(#mask1_16630_4126)">
<path fill-rule="evenodd" clip-rule="evenodd" d="M22.2728 34.3854C22.2713 38.1189 19.3173 41.071 15.5596 41.0941C11.8159 41.117 8.74649 38.073 8.7383 34.3292C8.73021 30.5269 11.6891 27.7133 15.5035 27.5522C19.1821 27.3969 22.5668 30.8482 22.2728 34.3854ZM24.5811 0.131958V3.78015V11.1128V21.7259C22.0292 19.8788 18.9038 18.7778 15.5148 18.7778C6.94611 18.7778 0 25.7365 0 34.3207C0 42.9048 6.94611 49.8636 15.5148 49.8636C18.9038 49.8636 22.0292 48.7626 24.5811 46.9155V46.9809V47.1695V49.183H33.5517V0.131958H24.5811Z" fill="#416EB2"/>
</g>
<path fill-rule="evenodd" clip-rule="evenodd" d="M113.754 34.3696C113.753 37.1923 111.519 39.4241 108.678 39.4415C105.848 39.4589 103.528 37.1575 103.521 34.3271C103.515 31.4525 105.752 29.3254 108.636 29.2035C111.417 29.086 113.976 31.6953 113.754 34.3696Z" fill="#7DC9AD"/>
<path fill-rule="evenodd" clip-rule="evenodd" d="M115.403 34.3854C115.401 38.119 112.447 41.071 108.689 41.0941C104.946 41.1171 101.876 38.073 101.868 34.3292C101.86 30.527 104.819 27.7133 108.633 27.5522C112.312 27.3969 115.697 30.8482 115.403 34.3854ZM117.711 18.8041V22.4522V29.7849V21.7259C115.159 19.8788 112.034 18.7778 108.645 18.7778C100.076 18.7778 93.1299 25.7366 93.1299 34.3207C93.1299 42.9048 100.076 49.8637 108.645 49.8637C112.034 49.8637 115.159 48.7626 117.711 46.9156V46.9809V47.1695V49.1831H126.682V18.8041H117.711Z" fill="#416EB2"/>
</svg>
